<?xml version="1.0" encoding="UTF-8" standalone="no"?>
<!DOCTYPE svg PUBLIC "-//W3C//DTD SVG 1.1//EN"
 "http://www.w3.org/Graphics/SVG/1.1/DTD/svg11.dtd">
<!-- Generated by graphviz version 12.1.2 (20240928.0832)
 -->
<!-- Title: G Pages: 1 -->
<svg xmlns="http://www.w3.org/2000/svg" viewBox="0 0 219.78 209.60" width="220" height="210">
<g id="graph0" class="graph" transform="scale(1 1) rotate(0) translate(4 205.6)">
<title>G</title>
<!-- API -->
<g id="node1" class="node">
<title>API</title>
<path fill="white" stroke="black" d="M118.14,-201.6C118.14,-201.6 74.66,-201.6 74.66,-201.6 68.66,-201.6 62.66,-195.6 62.66,-189.6 62.66,-189.6 62.66,-170.4 62.66,-170.4 62.66,-164.4 68.66,-158.4 74.66,-158.4 74.66,-158.4 118.14,-158.4 118.14,-158.4 124.14,-158.4 130.14,-164.4 130.14,-170.4 130.14,-170.4 130.14,-189.6 130.14,-189.6 130.14,-195.6 124.14,-201.6 118.14,-201.6"/>
<text text-anchor="middle" x="96.4" y="-172.8" font-family="Times,serif" font-size="24.00">API</text>
</g>
<!-- Auth -->
<g id="node2" class="node">
<title>Auth</title>
<path fill="white" stroke="black" d="M64.8,-122.4C64.8,-122.4 12,-122.4 12,-122.4 6,-122.4 0,-116.4 0,-110.4 0,-110.4 0,-91.2 0,-91.2 0,-85.2 6,-79.2 12,-79.2 12,-79.2 64.8,-79.2 64.8,-79.2 70.8,-79.2 76.8,-85.2 76.8,-91.2 76.8,-91.2 76.8,-110.4 76.8,-110.4 76.8,-116.4 70.8,-122.4 64.8,-122.4"/>
<text text-anchor="middle" x="38.4" y="-93.6" font-family="Times,serif" font-size="24.00">Auth</text>
</g>
<!-- API&#45;&gt;Auth -->
<g id="edge1" class="edge">
<title>API&#45;&gt;Auth</title>
<path fill="none" stroke="black" d="M80.55,-157.9C74.54,-149.91 67.58,-140.63 61.06,-131.96"/>
<polygon fill="black" stroke="black" points="63.94,-129.97 55.14,-124.08 58.35,-134.18 63.94,-129.97"/>
</g>
<!-- Cache_1 -->
<g id="node3" class="node">
<title>Cache_1</title>
<path fill="lightgrey" stroke="black" stroke-dasharray="5,2" d="M199.78,-122.4C199.78,-122.4 111.02,-122.4 111.02,-122.4 105.02,-122.4 99.02,-116.4 99.02,-110.4 99.02,-110.4 99.02,-91.2 99.02,-91.2 99.02,-85.2 105.02,-79.2 111.02,-79.2 111.02,-79.2 199.78,-79.2 199.78,-79.2 205.78,-79.2 211.78,-85.2 211.78,-91.2 211.78,-91.2 211.78,-110.4 211.78,-110.4 211.78,-116.4 205.78,-122.4 199.78,-122.4"/>
<text text-anchor="middle" x="155.4" y="-93.6" font-family="Times,serif" font-size="24.00">Cache_1</text>
</g>
<!-- API&#45;&gt;Cache_1 -->
<g id="edge3" class="edge">
<title>API&#45;&gt;Cache_1</title>
<path fill="none" stroke="black" d="M112.52,-157.9C118.64,-149.91 125.72,-140.63 132.35,-131.96"/>
<polygon fill="black" stroke="black" points="135.09,-134.14 138.38,-124.07 129.53,-129.89 135.09,-134.14"/>
</g>
<!-- DB -->
<g id="node4" class="node">
<title>DB</title>
<path fill="white" stroke="black" d="M57.47,-43.2C57.47,-43.2 19.33,-43.2 19.33,-43.2 13.33,-43.2 7.33,-37.2 7.33,-31.2 7.33,-31.2 7.33,-12 7.33,-12 7.33,-6 13.33,0 19.33,0 19.33,0 57.47,0 57.47,0 63.47,0 69.47,-6 69.47,-12 69.47,-12 69.47,-31.2 69.47,-31.2 69.47,-37.2 63.47,-43.2 57.47,-43.2"/>
<text text-anchor="middle" x="38.4" y="-14.4" font-family="Times,serif" font-size="24.00">DB</text>
</g>
<!-- Auth&#45;&gt;DB -->
<g id="edge2" class="edge">
<title>Auth&#45;&gt;DB</title>
<path fill="none" stroke="black" d="M38.4,-78.7C38.4,-71.39 38.4,-63 38.4,-54.99"/>
<polygon fill="black" stroke="black" points="41.9,-55.18 38.4,-45.18 34.9,-55.18 41.9,-55.18"/>
</g>
<!-- Cache -->
<g id="node5" class="node">
<title>Cache</title>
<path fill="white" stroke="black" d="M187.78,-43.2C187.78,-43.2 123.02,-43.2 123.02,-43.2 117.02,-43.2 111.02,-37.2 111.02,-31.2 111.02,-31.2 111.02,-12 111.02,-12 111.02,-6 117.02,0 123.02,0 123.02,0 187.78,0 187.78,0 193.78,0 199.78,-6 199.78,-12 199.78,-12 199.78,-31.2 199.78,-31.2 199.78,-37.2 193.78,-43.2 187.78,-43.2"/>
<text text-anchor="middle" x="155.4" y="-14.4" font-family="Times,serif" font-size="24.00">Cache</text>
</g>
<!-- Cache_1&#45;&gt;Cache -->
<g id="edge4" class="edge">
<title>Cache_1&#45;&gt;Cache</title>
<path fill="none" stroke="black" d="M155.4,-78.7C155.4,-71.39 155.4,-63 155.4,-54.99"/>
<polygon fill="black" stroke="black" points="158.9,-55.18 155.4,-45.18 151.9,-55.18 158.9,-55.18"/>
</g>
</g>
</svg>
