<?xml version="1.0" encoding="UTF-8" standalone="no"?>
<!DOCTYPE svg PUBLIC "-//W3C//DTD SVG 1.1//EN"
 "http://www.w3.org/Graphics/SVG/1.1/DTD/svg11.dtd">
<!-- Generated by graphviz version 12.1.2 (20240928.0832)
 -->
<!-- Title: PQTree Pages: 1 -->
<svg width="224pt" height="116pt"
 viewBox="0.00 0.00 224.05 116.00" xmlns="http://www.w3.org/2000/svg" xmlns:xlink="http://www.w3.org/1999/xlink">
<g id="graph0" class="graph" transform="scale(1 1) rotate(0) translate(4 112)">
<title>PQTree</title>
<!-- n0 -->
<g id="node1" class="node">
<title>n0</title>
<ellipse fill="white" stroke="black" cx="108.72" cy="-90" rx="27" ry="18"/>
<text text-anchor="middle" x="108.72" y="-85.8" font-family="SF Mono, Menlo, monospace" font-size="14.00">P</text>
</g>
<!-- n1 -->
<g id="node2" class="node">
<title>n1</title>
<path fill="white" stroke="black" d="M51.44,-36C51.44,-36 12,-36 12,-36 6,-36 0,-30 0,-24 0,-24 0,-12 0,-12 0,-6 6,0 12,0 12,0 51.44,0 51.44,0 57.44,0 63.44,-6 63.44,-12 63.44,-12 63.44,-24 63.44,-24 63.44,-30 57.44,-36 51.44,-36"/>
<text text-anchor="middle" x="31.72" y="-13.8" font-family="SF Mono, Menlo, monospace" font-size="14.00">Logging</text>
</g>
<!-- n0&#45;&gt;n1 -->
<g id="edge1" class="edge">
<title>n0&#45;&gt;n1</title>
<path fill="none" stroke="black" d="M93.14,-74.83C80.92,-63.73 63.86,-48.22 50.83,-36.37"/>
</g>
<!-- n2 -->
<g id="node3" class="node">
<title>n2</title>
<path fill="white" stroke="black" d="M123.72,-36C123.72,-36 93.72,-36 93.72,-36 87.72,-36 81.72,-30 81.72,-24 81.72,-24 81.72,-12 81.72,-12 81.72,-6 87.72,0 93.72,0 93.72,0 123.72,0 123.72,0 129.72,0 135.72,-6 135.72,-12 135.72,-12 135.72,-24 135.72,-24 135.72,-30 129.72,-36 123.72,-36"/>
<text text-anchor="middle" x="108.72" y="-13.8" font-family="SF Mono, Menlo, monospace" font-size="14.00">Auth</text>
</g>
<!-- n0&#45;&gt;n2 -->
<g id="edge2" class="edge">
<title>n0&#45;&gt;n2</title>
<path fill="none" stroke="black" d="M108.72,-71.7C108.72,-60.85 108.72,-46.92 108.72,-36.1"/>
</g>
<!-- n3 -->
<g id="node4" class="node">
<title>n3</title>
<path fill="white" stroke="black" d="M204.05,-36C204.05,-36 165.39,-36 165.39,-36 159.39,-36 153.39,-30 153.39,-24 153.39,-24 153.39,-12 153.39,-12 153.39,-6 159.39,0 165.39,0 165.39,0 204.05,0 204.05,0 210.05,0 216.05,-6 216.05,-12 216.05,-12 216.05,-24 216.05,-24 216.05,-30 210.05,-36 204.05,-36"/>
<text text-anchor="middle" x="184.72" y="-13.8" font-family="SF Mono, Menlo, monospace" font-size="14.00">Caching</text>
</g>
<!-- n0&#45;&gt;n3 -->
<g id="edge3" class="edge">
<title>n0&#45;&gt;n3</title>
<path fill="none" stroke="black" d="M124.1,-74.83C136.16,-63.73 152.99,-48.22 165.86,-36.37"/>
</g>
</g>
</svg>
