<?xml version="1.0" encoding="UTF-8" standalone="no"?>
<!DOCTYPE svg PUBLIC "-//W3C//DTD SVG 1.1//EN"
 "http://www.w3.org/Graphics/SVG/1.1/DTD/svg11.dtd">
<!-- Generated by graphviz version 12.1.2 (20240928.0832)
 -->
<!-- Title: G Pages: 1 -->
<svg xmlns="http://www.w3.org/2000/svg" viewBox="0 0 242.12 130.40" width="242" height="130">
<g id="graph0" class="graph" transform="scale(1 1) rotate(0) translate(4 126.4)">
<title>G</title>
<!-- Metrics -->
<g id="node1" class="node">
<title>Metrics</title>
<path fill="white" stroke="black" d="M90.11,-43.2C90.11,-43.2 12,-43.2 12,-43.2 6,-43.2 0,-37.2 0,-31.2 0,-31.2 0,-12 0,-12 0,-6 6,0 12,0 12,0 90.11,0 90.11,0 96.11,0 102.11,-6 102.11,-12 102.11,-12 102.11,-31.2 102.11,-31.2 102.11,-37.2 96.11,-43.2 90.11,-43.2"/>
<text text-anchor="middle" x="51.06" y="-14.4" font-family="Times,serif" font-size="24.00">Metrics</text>
</g>
<!-- Auth -->
<g id="node2" class="node">
<title>Auth</title>
<path fill="white" stroke="black" d="M85.46,-122.4C85.46,-122.4 32.66,-122.4 32.66,-122.4 26.66,-122.4 20.66,-116.4 20.66,-110.4 20.66,-110.4 20.66,-91.2 20.66,-91.2 20.66,-85.2 26.66,-79.2 32.66,-79.2 32.66,-79.2 85.46,-79.2 85.46,-79.2 91.46,-79.2 97.46,-85.2 97.46,-91.2 97.46,-91.2 97.46,-110.4 97.46,-110.4 97.46,-116.4 91.46,-122.4 85.46,-122.4"/>
<text text-anchor="middle" x="59.06" y="-93.6" font-family="Times,serif" font-size="24.00">Auth</text>
</g>
<!-- Auth&#45;&gt;Metrics -->
<g id="edge2" class="edge">
<title>Auth&#45;&gt;Metrics</title>
<path fill="none" stroke="black" d="M56.87,-78.7C56.11,-71.39 55.24,-63 54.41,-54.99"/>
<polygon fill="black" stroke="black" points="57.91,-54.76 53.4,-45.18 50.95,-55.48 57.91,-54.76"/>
</g>
<!-- Logging -->
<g id="node4" class="node">
<title>Logging</title>
<path fill="white" stroke="black" d="M222.12,-43.2C222.12,-43.2 135.99,-43.2 135.99,-43.2 129.99,-43.2 123.99,-37.2 123.99,-31.2 123.99,-31.2 123.99,-12 123.99,-12 123.99,-6 129.99,0 135.99,0 135.99,0 222.12,0 222.12,0 228.12,0 234.12,-6 234.12,-12 234.12,-12 234.12,-31.2 234.12,-31.2 234.12,-37.2 228.12,-43.2 222.12,-43.2"/>
<text text-anchor="middle" x="179.06" y="-14.4" font-family="Times,serif" font-size="24.00">Logging</text>
</g>
<!-- Auth&#45;&gt;Logging -->
<g id="edge1" class="edge">
<title>Auth&#45;&gt;Logging</title>
<path fill="none" stroke="black" d="M91.85,-78.7C105.74,-69.77 122.09,-59.25 136.87,-49.74"/>
<polygon fill="black" stroke="black" points="138.52,-52.84 145.03,-44.49 134.73,-46.96 138.52,-52.84"/>
</g>
<!-- API -->
<g id="node3" class="node">
<title>API</title>
<path fill="white" stroke="black" d="M191.79,-122.4C191.79,-122.4 148.32,-122.4 148.32,-122.4 142.32,-122.4 136.32,-116.4 136.32,-110.4 136.32,-110.4 136.32,-91.2 136.32,-91.2 136.32,-85.2 142.32,-79.2 148.32,-79.2 148.32,-79.2 191.79,-79.2 191.79,-79.2 197.79,-79.2 203.79,-85.2 203.79,-91.2 203.79,-91.2 203.79,-110.4 203.79,-110.4 203.79,-116.4 197.79,-122.4 191.79,-122.4"/>
<text text-anchor="middle" x="170.06" y="-93.6" font-family="Times,serif" font-size="24.00">API</text>
</g>
<!-- API&#45;&gt;Metrics -->
<g id="edge4" class="edge">
<title>API&#45;&gt;Metrics</title>
<path fill="none" stroke="black" d="M137.54,-78.7C123.77,-69.77 107.54,-59.25 92.89,-49.74"/>
<polygon fill="black" stroke="black" points="95.1,-47 84.8,-44.49 91.29,-52.87 95.1,-47"/>
</g>
<!-- API&#45;&gt;Logging -->
<g id="edge3" class="edge">
<title>API&#45;&gt;Logging</title>
<path fill="none" stroke="black" d="M172.52,-78.7C173.37,-71.39 174.35,-63 175.28,-54.99"/>
<polygon fill="black" stroke="black" points="178.74,-55.51 176.42,-45.17 171.79,-54.7 178.74,-55.51"/>
</g>
</g>
</svg>
