<?xml version="1.0" encoding="UTF-8" standalone="no"?>
<!DOCTYPE svg PUBLIC "-//W3C//DTD SVG 1.1//EN"
 "http://www.w3.org/Graphics/SVG/1.1/DTD/svg11.dtd">
<!-- Generated by graphviz version 12.1.2 (20240928.0832)
 -->
<!-- Title: G Pages: 1 -->
<svg xmlns="http://www.w3.org/2000/svg" viewBox="0 0 195.78 209.60" width="196" height="210">
<g id="graph0" class="graph" transform="scale(1 1) rotate(0) translate(4 205.6)">
<title>G</title>
<!-- Cache -->
<g id="node1" class="node">
<title>Cache</title>
<path fill="white" stroke="black" d="M76.76,-122.4C76.76,-122.4 12,-122.4 12,-122.4 6,-122.4 0,-116.4 0,-110.4 0,-110.4 0,-91.2 0,-91.2 0,-85.2 6,-79.2 12,-79.2 12,-79.2 76.76,-79.2 76.76,-79.2 82.76,-79.2 88.76,-85.2 88.76,-91.2 88.76,-91.2 88.76,-110.4 88.76,-110.4 88.76,-116.4 82.76,-122.4 76.76,-122.4"/>
<text text-anchor="middle" x="44.38" y="-93.6" font-family="Times,serif" font-size="24.00">Cache</text>
</g>
<!-- Core -->
<g id="node2" class="node">
<title>Core</title>
<path fill="white" stroke="black" d="M122.11,-43.2C122.11,-43.2 70.66,-43.2 70.66,-43.2 64.66,-43.2 58.66,-37.2 58.66,-31.2 58.66,-31.2 58.66,-12 58.66,-12 58.66,-6 64.66,0 70.66,0 70.66,0 122.11,0 122.11,0 128.11,0 134.11,-6 134.11,-12 134.11,-12 134.11,-31.2 134.11,-31.2 134.11,-37.2 128.11,-43.2 122.11,-43.2"/>
<text text-anchor="middle" x="96.38" y="-14.4" font-family="Times,serif" font-size="24.00">Core</text>
</g>
<!-- Cache&#45;&gt;Core -->
<g id="edge4" class="edge">
<title>Cache&#45;&gt;Core</title>
<path fill="none" stroke="black" d="M58.59,-78.7C63.92,-70.79 70.09,-61.63 75.88,-53.04"/>
<polygon fill="black" stroke="black" points="78.66,-55.17 81.34,-44.93 72.86,-51.26 78.66,-55.17"/>
</g>
<!-- App -->
<g id="node3" class="node">
<title>App</title>
<path fill="white" stroke="black" d="M119.45,-201.6C119.45,-201.6 73.32,-201.6 73.32,-201.6 67.32,-201.6 61.32,-195.6 61.32,-189.6 61.32,-189.6 61.32,-170.4 61.32,-170.4 61.32,-164.4 67.32,-158.4 73.32,-158.4 73.32,-158.4 119.45,-158.4 119.45,-158.4 125.45,-158.4 131.45,-164.4 131.45,-170.4 131.45,-170.4 131.45,-189.6 131.45,-189.6 131.45,-195.6 125.45,-201.6 119.45,-201.6"/>
<text text-anchor="middle" x="96.38" y="-172.8" font-family="Times,serif" font-size="24.00">App</text>
</g>
<!-- App&#45;&gt;Cache -->
<g id="edge2" class="edge">
<title>App&#45;&gt;Cache</title>
<path fill="none" stroke="black" d="M82.17,-157.9C76.84,-149.99 70.67,-140.83 64.88,-132.24"/>
<polygon fill="black" stroke="black" points="67.91,-130.46 59.42,-124.13 62.1,-134.37 67.91,-130.46"/>
</g>
<!-- Auth -->
<g id="node4" class="node">
<title>Auth</title>
<path fill="white" stroke="black" d="M175.78,-122.4C175.78,-122.4 122.98,-122.4 122.98,-122.4 116.98,-122.4 110.98,-116.4 110.98,-110.4 110.98,-110.4 110.98,-91.2 110.98,-91.2 110.98,-85.2 116.98,-79.2 122.98,-79.2 122.98,-79.2 175.78,-79.2 175.78,-79.2 181.78,-79.2 187.78,-85.2 187.78,-91.2 187.78,-91.2 187.78,-110.4 187.78,-110.4 187.78,-116.4 181.78,-122.4 175.78,-122.4"/>
<text text-anchor="middle" x="149.38" y="-93.6" font-family="Times,serif" font-size="24.00">Auth</text>
</g>
<!-- App&#45;&gt;Auth -->
<g id="edge1" class="edge">
<title>App&#45;&gt;Auth</title>
<path fill="none" stroke="black" d="M110.86,-157.9C116.3,-149.99 122.59,-140.83 128.49,-132.24"/>
<polygon fill="black" stroke="black" points="131.29,-134.34 134.06,-124.12 125.52,-130.38 131.29,-134.34"/>
</g>
<!-- Auth&#45;&gt;Core -->
<g id="edge3" class="edge">
<title>Auth&#45;&gt;Core</title>
<path fill="none" stroke="black" d="M134.9,-78.7C129.47,-70.79 123.18,-61.63 117.28,-53.04"/>
<polygon fill="black" stroke="black" points="120.25,-51.18 111.7,-44.92 114.48,-55.14 120.25,-51.18"/>
</g>
</g>
</svg>
