<?xml version="1.0" encoding="UTF-8" standalone="no"?>
<!DOCTYPE svg PUBLIC "-//W3C//DTD SVG 1.1//EN"
 "http://www.w3.org/Graphics/SVG/1.1/DTD/svg11.dtd">
<!-- Generated by graphviz version 12.1.2 (20240928.0832)
 -->
<!-- Title: G Pages: 1 -->
<svg xmlns="http://www.w3.org/2000/svg" viewBox="0 0 84.80 209.60" width="85" height="210">
<g id="graph0" class="graph" transform="scale(1 1) rotate(0) translate(4 205.6)">
<title>G</title>
<!-- App -->
<g id="node1" class="node">
<title>App</title>
<path fill="white" stroke="black" d="M61.47,-201.6C61.47,-201.6 15.33,-201.6 15.33,-201.6 9.33,-201.6 3.33,-195.6 3.33,-189.6 3.33,-189.6 3.33,-170.4 3.33,-170.4 3.33,-164.4 9.33,-158.4 15.33,-158.4 15.33,-158.4 61.47,-158.4 61.47,-158.4 67.47,-158.4 73.47,-164.4 73.47,-170.4 73.47,-170.4 73.47,-189.6 73.47,-189.6 73.47,-195.6 67.47,-201.6 61.47,-201.6"/>
<text text-anchor="middle" x="38.4" y="-172.8" font-family="Times,serif" font-size="24.00">App</text>
</g>
<!-- Auth -->
<g id="node2" class="node">
<title>Auth</title>
<path fill="white" stroke="black" d="M64.8,-122.4C64.8,-122.4 12,-122.4 12,-122.4 6,-122.4 0,-116.4 0,-110.4 0,-110.4 0,-91.2 0,-91.2 0,-85.2 6,-79.2 12,-79.2 12,-79.2 64.8,-79.2 64.8,-79.2 70.8,-79.2 76.8,-85.2 76.8,-91.2 76.8,-91.2 76.8,-110.4 76.8,-110.4 76.8,-116.4 70.8,-122.4 64.8,-122.4"/>
<text text-anchor="middle" x="38.4" y="-93.6" font-family="Times,serif" font-size="24.00">Auth</text>
</g>
<!-- App&#45;&gt;Auth -->
<g id="edge1" class="edge">
<title>App&#45;&gt;Auth</title>
<path fill="none" stroke="black" d="M38.4,-157.9C38.4,-150.59 38.4,-142.2 38.4,-134.19"/>
<polygon fill="black" stroke="black" points="41.9,-134.38 38.4,-124.38 34.9,-134.38 41.9,-134.38"/>
</g>
<!-- Core -->
<g id="node3" class="node">
<title>Core</title>
<path fill="white" stroke="black" d="M64.13,-43.2C64.13,-43.2 12.67,-43.2 12.67,-43.2 6.67,-43.2 0.67,-37.2 0.67,-31.2 0.67,-31.2 0.67,-12 0.67,-12 0.67,-6 6.67,0 12.67,0 12.67,0 64.13,0 64.13,0 70.13,0 76.13,-6 76.13,-12 76.13,-12 76.13,-31.2 76.13,-31.2 76.13,-37.2 70.13,-43.2 64.13,-43.2"/>
<text text-anchor="middle" x="38.4" y="-14.4" font-family="Times,serif" font-size="24.00">Core</text>
</g>
<!-- Auth&#45;&gt;Core -->
<g id="edge2" class="edge">
<title>Auth&#45;&gt;Core</title>
<path fill="none" stroke="black" d="M38.4,-78.7C38.4,-71.39 38.4,-63 38.4,-54.99"/>
<polygon fill="black" stroke="black" points="41.9,-55.18 38.4,-45.18 34.9,-55.18 41.9,-55.18"/>
</g>
</g>
</svg>
